<svg width="35" height="34" viewBox="0 0 35 34" fill="none" xmlns="http://www.w3.org/2000/svg">
<path d="M17.4993 17.0002H17.5159M23.3918 22.8928C15.5813 30.7033 6.6115 34.3967 3.35714 31.1424C0.102766 27.888 3.79623 18.9182 11.6067 11.1077C19.4172 3.2972 28.387 -0.396267 31.6414 2.8581C34.8958 6.11247 31.2023 15.0823 23.3918 22.8928ZM23.3918 11.1074C31.2022 18.9179 34.8957 27.8877 31.6413 31.1421C28.387 34.3964 19.4171 30.703 11.6066 22.8925C3.79616 15.082 0.102699 6.11217 3.35707 2.8578C6.61144 -0.396568 15.5813 3.29689 23.3918 11.1074ZM18.3326 17.0002C18.3326 17.4605 17.9595 17.8336 17.4993 17.8336C17.039 17.8336 16.6659 17.4605 16.6659 17.0002C16.6659 16.54 17.039 16.1669 17.4993 16.1669C17.9595 16.1669 18.3326 16.54 18.3326 17.0002Z" stroke="#3B82F6" stroke-width="3.33333" stroke-linecap="round" stroke-linejoin="round"/>
</svg>
